0
SECTION
2
HEADER
9
$INSUNITS
70
4
0
ENDSEC
0
SECTION
2
ENTITIES
0
LWPOLYLINE
8
OUTLINE
90
8
70
1
10
8
20
0
10
152
20
0
42
0.41421356237
10
160
20
8
10
160
20
92
42
0.41421356237
10
152
20
100
10
8
20
100
42
0.41421356237
10
0
20
92
10
0
20
8
42
0.41421356237
0
CIRCLE
8
HOLES
10
10
20
10
40
2.5
0
CIRCLE
8
HOLES
10
150
20
10
40
2.5
0
CIRCLE
8
HOLES
10
10
20
90
40
2.5
0
CIRCLE
8
HOLES
10
150
20
90
40
2.5
0
LWPOLYLINE
8
POCKET
90
8
70
1
10
25
20
35
10
65
20
35
42
0.41421356237
10
70
20
40
10
70
20
60
42
0.41421356237
10
65
20
65
10
25
20
65
42
0.41421356237
10
20
20
60
10
20
20
40
42
0.41421356237
0
CIRCLE
8
POCKET
10
45
20
50
40
6
0
LINE
8
SLOT
10
95
20
45
11
135
21
45
0
ARC
8
SLOT
10
135
20
50
40
5
50
270
51
90
0
LINE
8
SLOT
10
135
20
55
11
95
21
55
0
ARC
8
SLOT
10
95
20
50
40
5
50
90
51
270
0
ENDSEC
0
EOF
